<svg xmlns="http://www.w3.org/2000/svg" xmlns:xlink="http://www.w3.org/1999/xlink" viewBox="0 0 73.27 75.76"><defs><style>.cls-1{fill:#2684ff;}.cls-2{fill:url(#Gradiente_sem_nome_2);}.cls-3{fill:url(#Gradiente_sem_nome_2-2);}</style><linearGradient id="Gradiente_sem_nome_2" x1="34.63" y1="60.55" x2="18.99" y2="44.91" gradientTransform="matrix(1, 0, 0, -1, 0, 75.89)" gradientUnits="userSpaceOnUse"><stop offset="0.18" stop-color="#0052cc"/><stop offset="1" stop-color="#2684ff"/></linearGradient><linearGradient id="Gradiente_sem_nome_2-2" x1="38.78" y1="15.61" x2="54.39" y2="31.22" xlink:href="#Gradiente_sem_nome_2"/></defs><g id="Camada_2" data-name="Camada 2"><g id="Camada_1-2" data-name="Camada 1"><g id="Layer_2" data-name="Layer 2"><g id="Blue"><path class="cls-1" d="M72.4,35.76,39.8,3.16,36.64,0h0L12.1,24.54h0L.88,35.76A3,3,0,0,0,.88,40L23.3,62.42,36.64,75.76,61.18,51.22l.38-.38L72.4,40A3,3,0,0,0,72.4,35.76ZM36.64,49.08l-11.2-11.2,11.2-11.2,11.2,11.2Z"/><path class="cls-2" d="M36.64,26.68A18.85,18.85,0,0,1,36.56.09L12.05,24.59,25.39,37.93Z"/><path class="cls-3" d="M47.87,37.85,36.64,49.08a18.87,18.87,0,0,1,0,26.67h0L61.21,51.19Z"/></g></g></g></g></svg>